<?xml version="1.0" standalone="no"?>
<!DOCTYPE svg PUBLIC "-//W3C//DTD SVG 20010904//EN"
 "http://www.w3.org/TR/2001/REC-SVG-20010904/DTD/svg10.dtd">
<svg version="1.0" xmlns="http://www.w3.org/2000/svg"
 width="326.000000pt" height="268.000000pt" viewBox="0 0 326.000000 268.000000"
 preserveAspectRatio="xMidYMid meet">

<g transform="translate(0.000000,268.000000) scale(0.100000,-0.100000)"
fill="#000000" stroke="none">
<path d="M1339 2651 c-141 -22 -320 -69 -335 -87 -6 -8 -23 -14 -37 -14 -14 0
-28 -4 -31 -9 -3 -4 -19 -11 -36 -14 -19 -4 -30 -13 -30 -23 0 -12 -6 -15 -24
-10 -14 3 -28 1 -31 -4 -4 -6 -27 -22 -53 -36 -108 -58 -285 -209 -350 -298
-20 -28 -46 -61 -59 -73 -13 -12 -23 -31 -23 -43 0 -11 -7 -23 -15 -26 -8 -4
-15 -12 -15 -18 0 -7 -11 -23 -25 -36 -14 -13 -25 -29 -25 -37 0 -7 -3 -13 -7
-13 -5 0 -16 -21 -26 -48 -10 -26 -23 -55 -28 -64 -5 -10 -9 -29 -9 -42 0 -14
-5 -37 -10 -52 -19 -49 -29 -212 -19 -303 12 -111 39 -232 54 -237 6 -3 10
-17 7 -33 -3 -21 -15 -34 -44 -50 -45 -24 -52 -25 -43 -11 3 6 -1 10 -9 10 -9
0 -16 -4 -16 -10 0 -5 -7 -10 -15 -10 -23 0 -18 -28 6 -35 17 -6 19 -9 8 -16
-12 -8 -11 -12 4 -23 9 -7 17 -21 17 -29 0 -24 -31 -57 -55 -57 -37 0 -44 -13
-41 -79 2 -61 3 -65 48 -107 45 -43 49 -44 112 -44 36 0 67 4 71 9 3 5 20 13
38 16 17 4 43 15 57 25 43 29 150 63 198 63 26 0 103 -12 172 -27 117 -25 136
-27 290 -22 91 3 203 10 250 15 47 5 153 14 235 21 227 18 235 19 261 45 32
32 34 113 3 156 -21 30 -54 38 -62 17 -3 -8 -6 -6 -6 4 -1 11 -8 17 -18 16
-41 -3 -63 3 -83 24 -31 34 -53 84 -45 107 6 19 13 20 148 16 78 -2 149 -6
158 -10 9 -3 24 -24 34 -45 23 -51 48 -74 73 -66 13 5 22 1 26 -10 4 -12 13
-14 32 -10 22 6 24 5 15 -13 -6 -11 -16 -21 -23 -24 -17 -5 61 -44 132 -66 47
-15 55 -21 55 -42 0 -18 -8 -26 -32 -34 -52 -17 -50 -25 6 -25 38 0 60 -6 78
-20 25 -19 25 -20 4 -20 -12 0 -24 -7 -27 -15 -4 -8 -14 -15 -25 -15 -23 0
-69 -21 -69 -32 0 -11 37 -10 61 3 11 6 52 12 90 15 39 2 80 9 90 15 21 11 79
3 79 -10 0 -15 -46 -48 -90 -65 -25 -10 -53 -22 -62 -27 -10 -5 -26 -9 -35 -9
-10 -1 -36 -9 -58 -20 -22 -11 -46 -19 -52 -20 -7 0 -13 -4 -13 -10 0 -5 -5
-10 -12 -10 -20 0 -88 -33 -88 -43 0 -5 12 -6 28 -3 15 4 38 9 52 11 47 8 135
27 150 32 17 7 125 38 180 53 19 5 71 19 115 30 44 12 84 26 90 31 5 5 17 9
27 9 10 0 18 4 18 9 0 5 12 12 28 16 25 6 99 49 130 75 7 6 26 16 42 21 16 6
41 26 55 45 14 19 35 34 45 34 10 0 22 5 25 10 10 16 23 12 35 -10 14 -26 -15
-139 -40 -157 -11 -8 -16 -20 -13 -32 3 -11 -2 -21 -10 -24 -19 -7 -51 -72
-43 -86 3 -5 -7 -12 -22 -16 -29 -6 -92 -64 -92 -84 0 -6 -9 -11 -20 -11 -11
0 -20 -4 -20 -10 0 -5 -7 -10 -15 -10 -8 0 -27 -16 -42 -35 -15 -19 -35 -35
-43 -35 -8 0 -28 -11 -43 -26 -15 -14 -32 -22 -38 -19 -5 4 -15 2 -22 -3 -11
-9 -88 -53 -127 -73 -30 -15 -86 -37 -125 -49 -22 -7 -53 -18 -70 -25 -16 -7
-57 -20 -90 -30 -33 -10 -69 -21 -80 -26 -24 -9 -99 -27 -175 -40 -30 -6 -77
-15 -105 -20 -46 -10 -299 -6 -420 5 -80 8 -294 69 -361 103 -19 10 -41 13
-57 9 -27 -6 -38 -26 -14 -26 6 0 23 -9 37 -20 14 -11 33 -20 43 -20 9 0 17
-4 17 -8 0 -4 26 -16 58 -26 31 -10 66 -22 77 -26 58 -22 145 -42 227 -53 241
-31 693 5 794 63 19 11 36 14 41 9 14 -14 283 70 316 99 9 8 17 13 17 10 0 -4
19 2 43 11 67 27 167 80 167 90 0 5 20 17 45 28 25 10 45 22 45 27 0 14 53 56
80 63 29 7 60 31 60 47 0 6 14 20 30 31 16 11 30 25 30 31 0 6 9 19 19 28 19
17 86 142 86 161 1 6 6 19 12 31 37 66 45 383 11 421 -18 20 -26 81 -14 102
10 15 11 23 26 121 12 79 2 262 -16 307 -8 18 -14 45 -15 60 0 15 -13 57 -27
93 -20 48 -35 69 -57 79 -23 12 -26 16 -12 19 9 2 17 8 17 14 0 19 -34 68 -47
68 -7 0 -13 9 -13 19 0 11 -11 28 -25 39 -14 11 -25 24 -25 29 0 16 -63 84
-86 93 -12 5 -28 22 -36 37 -7 16 -23 29 -36 31 -12 2 -22 9 -22 16 0 20 -208
166 -238 166 -8 0 -23 6 -31 14 -13 12 -68 37 -206 97 -11 5 -40 11 -63 13
-24 3 -49 9 -55 15 -7 5 -83 21 -169 35 -217 37 -565 45 -739 17z m1221 -227
c0 -8 -4 -12 -10 -9 -5 3 -10 10 -10 16 0 5 5 9 10 9 6 0 10 -7 10 -16z
m-1920 -104 c0 -5 -4 -10 -10 -10 -5 0 -10 5 -10 10 0 6 5 10 10 10 6 0 10 -4
10 -10z m-275 -350 c3 -5 1 -10 -4 -10 -6 0 -11 5 -11 10 0 6 2 10 4 10 3 0 8
-4 11 -10z m1196 -1007 c-12 -20 -14 -14 -5 12 4 9 9 14 11 11 3 -2 0 -13 -6
-23z m-1434 -259 c-3 -3 -12 -4 -19 -1 -8 3 -5 6 6 6 11 1 17 -2 13 -5z m2503
-458 c0 -3 -4 -8 -10 -11 -5 -3 -10 -1 -10 4 0 6 5 11 10 11 6 0 10 -2 10 -4z"/>
</g>
</svg>
