<?xml version="1.0" standalone="no"?>
<!DOCTYPE svg PUBLIC "-//W3C//DTD SVG 20010904//EN"
 "http://www.w3.org/TR/2001/REC-SVG-20010904/DTD/svg10.dtd">
<svg version="1.0" xmlns="http://www.w3.org/2000/svg"
 width="459.000000pt" height="404.000000pt" viewBox="0 0 459.000000 404.000000"
 preserveAspectRatio="xMidYMid meet">

<g transform="translate(0.000000,404.000000) scale(0.100000,-0.100000)"
fill="#000000" stroke="none">
<path d="M631 4005 c-31 -41 -35 -83 -13 -141 l20 -50 -30 -45 c-17 -24 -38
-63 -49 -86 -48 -112 -62 -318 -34 -507 8 -55 15 -101 15 -103 0 -1 -35 -3
-77 -3 -98 0 -136 -20 -154 -79 -21 -72 22 -147 139 -239 34 -26 64 -42 81
-42 34 0 69 35 82 84 15 54 33 55 89 2 27 -25 54 -46 60 -46 19 0 12 -52 -63
-425 l-12 -60 -47 -3 c-106 -7 -266 59 -363 149 -72 67 -93 79 -139 79 -39 0
-88 -35 -112 -81 -13 -25 -13 -33 0 -64 31 -73 165 -177 288 -223 61 -23 188
-42 280 -42 31 0 59 -3 61 -7 2 -5 -3 -64 -10 -133 -21 -185 -12 -544 16 -669
14 -63 21 -129 21 -201 0 -127 20 -251 54 -338 26 -65 36 -83 122 -222 29 -47
60 -104 68 -127 l15 -43 -52 -33 c-61 -40 -123 -106 -143 -153 -15 -37 -17
-98 -4 -129 9 -20 9 -20 9 1 2 43 101 168 115 145 4 -5 2 -38 -3 -72 -6 -35
-9 -64 -7 -66 2 -2 20 25 40 60 43 73 95 132 106 120 4 -4 15 -33 25 -63 10
-30 22 -64 28 -74 9 -18 10 -17 22 10 6 16 15 51 19 77 4 26 13 47 19 47 7 0
39 -36 72 -80 48 -66 61 -77 68 -64 19 33 0 104 -48 182 l-47 77 42 125 c54
156 70 189 112 226 40 35 60 43 187 79 52 14 125 39 163 56 60 26 73 29 102
19 58 -19 128 -109 160 -208 l18 -53 -40 -35 c-61 -52 -137 -214 -101 -214 6
0 40 27 76 60 36 33 69 58 73 55 4 -3 11 -24 14 -47 4 -24 13 -54 21 -68 l14
-25 16 39 c9 22 19 64 22 93 7 60 21 68 49 26 27 -42 78 -103 87 -103 14 0 7
80 -13 130 -26 65 -25 73 3 64 30 -9 126 -71 160 -102 33 -31 35 -16 7 46 -25
54 -71 98 -137 129 -29 13 -53 28 -53 33 0 4 20 57 43 117 40 97 76 205 91
273 12 52 22 57 58 31 18 -13 73 -66 122 -118 97 -103 182 -168 266 -204 43
-19 73 -24 135 -24 104 0 129 14 273 149 131 122 163 138 244 116 62 -18 130
-82 237 -224 110 -146 155 -188 231 -217 92 -35 139 -22 208 56 37 43 55 79
109 230 22 61 79 120 124 129 76 14 177 -43 249 -139 19 -25 36 -43 38 -40 10
10 -61 136 -104 184 -54 60 -95 87 -154 100 -99 22 -169 -23 -215 -137 -52
-129 -106 -231 -132 -251 -47 -38 -80 -28 -148 42 -33 34 -94 107 -135 162
-165 221 -270 299 -401 298 -90 0 -141 -27 -246 -125 -95 -90 -146 -118 -218
-118 -89 0 -163 51 -236 161 -43 66 -121 140 -186 178 -32 19 -68 40 -80 48
-18 11 -23 23 -23 57 0 67 -36 247 -61 307 -74 174 -230 365 -464 566 l-60 52
41 43 c100 105 170 254 193 409 14 89 2 161 -31 196 -44 47 -144 20 -169 -45
-5 -14 -14 -59 -20 -101 -5 -42 -17 -108 -25 -147 -16 -75 -90 -236 -112 -242
-15 -5 -131 111 -194 194 -26 33 -65 98 -88 143 l-41 82 15 91 c9 50 18 93 20
95 2 3 22 -1 43 -7 23 -7 77 -11 126 -9 82 4 87 5 121 38 20 19 41 50 47 69
14 44 7 195 -10 216 -21 25 -61 19 -161 -24 -51 -23 -112 -43 -135 -47 l-42
-5 -12 48 c-62 244 -201 414 -414 509 -49 21 -57 29 -66 62 -6 21 -11 47 -11
59 0 12 -10 36 -23 55 -19 28 -30 35 -64 37 -34 3 -44 -1 -62 -23z m311 -572
c22 -20 24 -76 3 -93 -24 -20 -55 14 -55 60 0 53 17 65 52 33z m-125 -35 c45
-42 23 -135 -26 -108 -41 21 -55 85 -25 114 20 21 23 20 51 -6z"/>
</g>
</svg>
