<?xml version="1.0" standalone="no"?>
<!DOCTYPE svg PUBLIC "-//W3C//DTD SVG 20010904//EN"
 "http://www.w3.org/TR/2001/REC-SVG-20010904/DTD/svg10.dtd">
<svg version="1.0" xmlns="http://www.w3.org/2000/svg"
 width="543.000000pt" height="406.000000pt" viewBox="0 0 543.000000 406.000000"
 preserveAspectRatio="xMidYMid meet">

<g transform="translate(0.000000,406.000000) scale(0.100000,-0.100000)"
fill="#000000" stroke="none">
<path d="M2296 4029 c-26 -20 -26 -22 -20 -112 4 -60 2 -107 -6 -136 -11 -43
-12 -43 -48 -37 -94 15 -171 17 -242 3 -41 -8 -83 -17 -92 -21 -13 -6 -23 4
-44 45 -15 30 -35 78 -46 108 -23 69 -62 111 -100 111 -44 0 -178 -61 -214
-97 -94 -94 -57 -204 104 -308 58 -38 59 -39 72 -104 7 -36 23 -90 36 -120 13
-29 24 -57 24 -62 0 -5 -16 -30 -36 -56 -60 -79 -123 -211 -176 -370 -26 -78
-37 -99 -70 -127 -96 -82 -229 -124 -367 -114 -84 6 -160 41 -233 106 l-48 44
6 69 7 69 -45 45 c-54 54 -89 58 -155 20 -100 -59 -98 -167 5 -271 106 -109
220 -180 333 -209 85 -23 221 -16 308 14 35 12 66 20 68 17 3 -3 -29 -45 -72
-95 -108 -124 -188 -241 -238 -343 l-42 -87 -62 0 c-149 -2 -324 -129 -393
-285 -36 -79 -47 -54 -100 218 -31 162 -43 147 -37 -46 3 -102 2 -170 -4 -174
-10 -6 -101 180 -118 243 -12 44 -49 104 -68 111 -45 14 27 -256 102 -384 28
-48 30 -54 14 -54 -19 0 -79 71 -147 175 -79 120 -120 175 -133 175 -15 0 -10
-43 12 -116 26 -85 53 -133 140 -249 73 -98 131 -157 200 -202 42 -27 49 -28
159 -28 82 1 132 6 174 19 60 19 202 26 243 12 13 -4 37 -27 53 -51 116 -169
377 -335 700 -448 103 -36 178 -54 297 -72 128 -19 186 -19 292 0 78 14 85 13
97 -3 7 -9 14 -21 14 -26 0 -13 89 -136 134 -184 22 -24 68 -61 103 -84 60
-39 62 -42 47 -59 -30 -34 -101 -49 -224 -49 -204 0 -259 -18 -167 -55 43 -17
178 -34 280 -35 31 0 57 -4 57 -8 0 -4 -22 -30 -49 -56 l-49 -49 -112 5 c-118
5 -139 -2 -99 -34 92 -72 233 -60 349 32 22 18 44 29 47 26 12 -11 -16 -97
-45 -140 -21 -31 -42 -47 -88 -66 -108 -45 -117 -70 -24 -70 89 0 184 77 250
203 18 34 52 83 75 108 101 108 104 163 21 359 -66 154 -86 243 -86 373 0 69
4 100 18 123 39 70 127 194 137 194 26 0 207 -100 280 -155 44 -33 211 -188
370 -345 192 -189 322 -308 385 -353 164 -118 395 -219 600 -263 111 -24 477
-27 555 -5 115 33 219 107 245 177 6 14 10 61 10 104 0 71 -3 82 -32 125 -32
47 -112 114 -123 103 -3 -3 12 -27 35 -53 22 -25 47 -59 55 -75 22 -43 19
-101 -8 -141 -84 -125 -297 -156 -616 -90 -246 51 -367 105 -564 251 -26 19
-127 118 -224 220 -467 487 -605 603 -828 697 l-70 30 -7 119 c-13 238 -87
374 -294 537 -93 74 -121 103 -111 114 2 2 53 -4 113 -13 188 -28 291 -12 428
68 93 55 145 103 172 163 27 57 30 101 10 149 -19 46 -52 66 -106 66 -90 0
-149 -68 -136 -157 5 -39 3 -44 -27 -67 -17 -13 -57 -37 -87 -52 -50 -26 -64
-28 -165 -28 -108 0 -157 9 -246 47 -32 13 -41 26 -78 111 -24 54 -40 103 -38
110 3 7 26 16 51 19 40 6 52 3 93 -23 65 -42 129 -42 175 -1 29 26 32 34 32
84 -1 44 -7 63 -32 98 -17 24 -44 80 -61 124 -41 106 -164 320 -292 507 -22
31 -39 60 -39 65 1 4 17 20 38 34 82 57 124 167 89 235 -31 60 -144 154 -185
154 -11 0 -31 -9 -46 -21z m42 -631 c7 -7 12 -26 12 -44 0 -52 -43 -54 -71 -2
-21 39 28 77 59 46z m-124 -40 c28 -40 15 -98 -21 -98 -25 0 -53 39 -53 73 0
19 3 37 7 40 14 15 53 6 67 -15z"/>
</g>
</svg>
