<?xml version="1.0" standalone="no"?>
<!DOCTYPE svg PUBLIC "-//W3C//DTD SVG 20010904//EN"
 "http://www.w3.org/TR/2001/REC-SVG-20010904/DTD/svg10.dtd">
<svg version="1.0" xmlns="http://www.w3.org/2000/svg"
 width="324.000000pt" height="422.000000pt" viewBox="0 0 324.000000 422.000000"
 preserveAspectRatio="xMidYMid meet">

<g transform="translate(0.000000,422.000000) scale(0.100000,-0.100000)"
fill="#000000" stroke="none">
<path d="M2599 4186 c-50 -34 -71 -85 -82 -196 -13 -146 -21 -166 -65 -181
-52 -17 -159 -70 -226 -113 -50 -32 -64 -36 -122 -36 -93 0 -199 18 -274 46
-80 30 -119 30 -149 3 -27 -26 -35 -45 -51 -131 -34 -184 76 -382 212 -380 21
1 38 -1 38 -2 0 -2 -20 -42 -45 -88 -24 -46 -62 -132 -84 -190 -48 -126 -92
-219 -124 -262 -16 -20 -59 -49 -118 -78 -117 -57 -250 -151 -339 -240 -172
-171 -339 -522 -340 -713 -1 -97 6 -92 -148 -99 -219 -10 -331 -32 -419 -83
-107 -62 -218 -234 -250 -388 -13 -68 -14 -94 -4 -173 19 -159 89 -280 225
-392 338 -275 718 -381 1206 -336 282 27 398 54 598 140 279 120 409 125 519
20 36 -34 43 -47 43 -78 0 -68 -31 -112 -136 -194 l-29 -23 43 6 c60 8 137 58
167 109 67 115 -8 282 -150 335 -31 12 -74 21 -96 21 -61 0 -173 -26 -284 -66
-191 -69 -300 -103 -375 -116 -101 -18 -480 -17 -580 0 -202 36 -348 81 -508
158 -330 157 -483 348 -428 533 34 116 111 202 214 239 71 26 228 44 347 40
l89 -3 8 -42 c21 -123 140 -215 398 -309 120 -43 240 -111 346 -196 54 -44
115 -88 134 -98 43 -22 116 -35 124 -22 5 9 -29 66 -74 124 -12 16 -17 28 -11
28 6 0 57 -22 115 -50 105 -50 126 -57 126 -42 0 21 -67 107 -123 157 -33 30
-55 55 -49 55 13 0 100 -31 199 -71 39 -16 76 -29 82 -29 53 0 -72 127 -169
172 -38 18 -70 36 -70 39 0 4 24 18 53 32 68 34 138 101 177 171 37 66 26 68
170 -37 52 -38 117 -80 144 -94 52 -26 145 -57 152 -50 2 2 -52 59 -121 126
-69 68 -125 125 -125 127 0 8 40 -13 140 -73 137 -82 280 -128 280 -89 0 17
-114 108 -214 172 -78 49 -97 71 -48 59 15 -4 63 -13 107 -21 44 -8 93 -17
109 -20 50 -12 21 10 -91 66 -59 30 -110 57 -113 59 -3 1 6 10 18 20 133 93
183 203 184 401 0 97 -4 116 -46 253 -26 81 -44 152 -41 157 9 14 101 -47 133
-88 16 -20 43 -65 61 -99 33 -67 53 -83 99 -83 40 0 82 49 82 94 0 40 -29 72
-97 105 -148 73 -309 204 -351 287 -23 44 -32 99 -17 99 6 0 42 -17 82 -38
100 -51 229 -87 314 -87 54 0 72 -4 86 -19 30 -31 86 -61 116 -61 43 0 78 41
71 82 -7 38 -40 196 -59 278 -7 30 -29 127 -49 215 -95 411 -157 565 -276 685
-36 37 -79 77 -97 91 -32 24 -32 24 -18 64 24 66 37 203 26 272 -11 73 -31
114 -67 142 -34 27 -42 26 -85 -3z m343 -923 c22 -20 24 -85 4 -102 -32 -27
-85 42 -72 94 8 30 40 34 68 8z m-180 -53 c54 -42 61 -120 12 -142 -22 -10
-28 -8 -55 19 -38 37 -50 101 -24 126 21 22 37 21 67 -3z m-730 -758 c14 -83
100 -226 173 -287 25 -20 80 -62 123 -92 95 -67 122 -98 122 -140 0 -41 -56
-103 -93 -103 -36 0 -86 46 -113 104 -14 30 -57 84 -107 135 -71 74 -87 96
-110 158 -27 74 -53 232 -43 259 12 31 40 11 48 -34z"/>
</g>
</svg>
