<?xml version="1.0" standalone="no"?>
<!DOCTYPE svg PUBLIC "-//W3C//DTD SVG 20010904//EN"
 "http://www.w3.org/TR/2001/REC-SVG-20010904/DTD/svg10.dtd">
<svg version="1.0" xmlns="http://www.w3.org/2000/svg"
 width="556.000000pt" height="377.000000pt" viewBox="0 0 556.000000 377.000000"
 preserveAspectRatio="xMidYMid meet">

<g transform="translate(0.000000,377.000000) scale(0.100000,-0.100000)"
fill="#000000" stroke="none">
<path d="M1987 3746 c-8 -9 -27 -16 -41 -16 -41 0 -92 -56 -106 -118 -8 -35
-9 -57 -2 -65 5 -6 13 -26 16 -43 4 -17 27 -52 52 -78 24 -25 44 -50 44 -55 0
-10 -40 -57 -125 -149 -52 -57 -240 -212 -256 -212 -12 0 -73 -42 -77 -52 -2
-5 -8 -8 -13 -8 -18 0 -115 -78 -161 -129 -26 -28 -49 -65 -53 -81 -4 -17 -11
-30 -16 -30 -20 0 -20 -48 1 -88 43 -83 154 -105 207 -42 26 31 62 48 72 33 9
-15 132 -73 153 -73 10 0 18 -4 18 -10 0 -5 15 -10 33 -10 59 0 64 -12 33 -72
-16 -29 -35 -58 -42 -64 -8 -6 -14 -16 -14 -22 0 -12 -23 -69 -46 -114 -8 -14
-14 -36 -14 -47 0 -12 -4 -21 -8 -21 -5 0 -14 -24 -21 -53 -6 -30 -21 -70 -31
-90 -11 -20 -20 -49 -20 -64 -1 -16 -7 -39 -15 -53 -8 -14 -14 -37 -15 -52 0
-16 -4 -28 -10 -28 -5 0 -12 -17 -15 -37 -3 -21 -10 -45 -14 -53 -5 -9 -12
-31 -16 -50 -4 -19 -18 -57 -31 -84 -13 -28 -24 -62 -24 -77 0 -14 -7 -32 -15
-39 -8 -7 -15 -25 -15 -40 0 -15 -7 -33 -15 -40 -8 -7 -15 -25 -15 -41 0 -16
-4 -29 -9 -29 -5 0 -13 -15 -16 -33 -9 -38 -52 -126 -89 -180 -14 -21 -26 -45
-26 -53 0 -8 -4 -13 -9 -10 -5 3 -12 -2 -15 -12 -18 -49 -75 -122 -95 -122 -9
0 -26 -7 -37 -15 -10 -8 -29 -15 -41 -15 -12 0 -28 -6 -35 -12 -7 -7 -31 -22
-53 -32 -22 -11 -50 -29 -62 -40 -13 -11 -23 -16 -23 -12 0 14 -129 -111 -130
-126 0 -12 -47 -58 -59 -58 -7 0 -19 6 -26 13 -33 28 -45 37 -53 37 -11 0
-122 120 -122 132 0 5 -11 24 -25 42 -14 18 -25 39 -25 46 0 7 -6 21 -14 29
-8 9 -25 37 -39 62 -56 107 -139 199 -178 199 -15 0 -10 -16 9 -33 10 -9 28
-36 41 -59 12 -24 32 -60 44 -80 12 -20 34 -58 50 -84 29 -50 33 -69 16 -79
-10 -7 -43 23 -114 108 -22 26 -46 47 -52 47 -17 0 -16 -12 2 -36 8 -10 15
-27 15 -36 0 -10 4 -18 9 -18 15 0 73 -91 67 -106 -8 -22 -19 -17 -72 34 -47
45 -175 132 -195 132 -18 0 -8 -18 33 -57 24 -22 81 -80 128 -129 47 -49 97
-98 111 -109 136 -104 182 -135 198 -135 11 0 22 -4 26 -9 23 -39 146 -54 212
-26 39 16 148 11 121 -6 -7 -5 34 -9 99 -9 61 0 114 -4 117 -9 7 -12 55 -20
58 -10 2 4 53 3 113 -1 61 -5 148 -9 196 -9 47 -1 89 -5 95 -10 5 -5 27 -11
49 -13 l40 -3 8 120 c4 66 12 130 17 143 6 13 10 43 10 67 0 24 5 47 10 50 6
3 10 24 10 46 0 44 23 109 39 109 6 0 11 -8 11 -17 1 -10 1 -164 2 -342 2
-255 5 -324 15 -328 7 -3 13 -13 13 -24 0 -28 33 -129 42 -129 4 0 8 -9 8 -20
0 -11 6 -20 14 -20 8 0 21 -9 29 -20 25 -35 95 -80 127 -80 16 0 30 4 30 8 0
5 11 15 25 22 29 16 45 57 45 120 0 45 -20 80 -46 80 -19 0 -74 53 -74 71 0
10 -4 21 -10 24 -11 7 -13 48 -4 94 l7 31 296 0 c163 0 301 -4 307 -8 39 -26
8 -84 -61 -117 -63 -29 -84 -52 -92 -99 -8 -48 16 -83 62 -92 19 -3 35 -10 35
-15 0 -5 25 -9 55 -9 30 0 55 5 55 10 0 6 7 10 16 10 20 0 69 54 97 105 24 43
46 123 54 195 3 25 10 48 15 51 5 3 12 44 14 90 3 46 10 100 15 119 6 19 13
100 16 180 5 141 14 187 34 175 5 -4 9 -25 9 -48 0 -26 3 -37 9 -29 8 13 21
-239 21 -410 l0 -88 103 1 c56 0 174 4 262 8 88 5 164 6 170 3 14 -9 99 -2
109 9 6 5 57 9 115 9 59 0 122 6 141 13 43 15 121 73 147 109 11 15 37 47 59
70 22 24 61 71 88 106 26 35 59 75 72 89 27 29 29 39 12 49 -6 4 -17 -1 -25
-12 -34 -47 -86 -94 -104 -94 -25 0 -24 8 11 54 17 22 30 43 30 48 0 5 23 38
50 73 69 89 67 108 -6 59 -54 -36 -124 -105 -124 -123 0 -8 -3 -11 -7 -8 -4 4
-12 -6 -19 -23 -16 -37 -44 -40 -44 -6 0 33 10 57 21 50 5 -3 9 3 9 14 0 11 8
30 18 43 10 13 26 36 35 52 15 24 16 27 2 27 -20 0 -95 -80 -95 -102 0 -9 -3
-18 -8 -20 -11 -5 -52 -66 -52 -78 0 -6 -4 -18 -9 -28 -5 -9 -19 -38 -31 -65
-12 -26 -26 -47 -31 -47 -5 0 -9 -7 -9 -15 0 -26 -21 -17 -68 30 -24 25 -60
55 -79 66 -44 28 -85 66 -108 102 -17 27 -17 28 5 52 13 14 31 25 41 25 9 0
22 7 29 15 7 8 31 20 54 27 22 7 45 18 49 25 4 7 15 13 23 13 8 0 22 4 32 9
22 10 94 44 155 72 27 12 69 24 93 27 24 2 42 8 39 12 -5 9 44 20 85 20 16 0
30 6 33 13 5 16 487 17 508 1 8 -6 45 -14 83 -17 38 -3 71 -9 75 -14 3 -6 30
-13 59 -17 30 -4 61 -11 70 -15 10 -5 28 -13 42 -19 76 -31 179 -86 174 -93
-3 -5 2 -9 11 -9 9 0 30 -14 47 -30 16 -16 33 -30 37 -30 4 0 20 -18 37 -40
16 -22 32 -40 37 -40 4 0 7 -6 7 -14 0 -8 3 -16 8 -18 12 -5 72 -85 72 -96 0
-6 9 -26 19 -44 25 -42 42 -151 32 -205 -10 -49 -42 -114 -84 -167 -38 -48
-75 -86 -85 -86 -4 0 -25 -14 -46 -30 -22 -17 -46 -30 -53 -30 -8 0 -11 -5 -8
-10 3 -6 -2 -10 -12 -10 -11 0 -28 -7 -39 -15 -10 -8 -27 -15 -37 -15 -10 0
-28 -7 -41 -15 -12 -8 -42 -16 -67 -17 -24 0 -54 -8 -66 -15 -17 -11 -76 -16
-238 -20 -150 -4 -215 -9 -212 -17 2 -6 28 -12 58 -14 30 -2 58 -7 63 -13 13
-12 136 -12 136 0 0 5 42 12 93 15 112 6 257 27 257 37 0 5 17 11 38 14 20 4
51 13 69 21 17 8 34 14 38 14 4 0 18 9 32 20 14 11 32 20 40 20 9 0 25 9 37
19 11 11 38 34 59 52 21 17 45 46 54 62 8 17 24 39 34 50 11 12 21 43 25 79 4
32 11 61 15 64 12 7 12 124 0 124 -4 0 -12 28 -15 61 -4 34 -11 69 -15 78 -5
9 -24 47 -42 85 -23 47 -59 94 -114 150 -114 117 -148 144 -223 178 -37 16
-79 36 -94 44 -14 8 -34 14 -45 14 -10 0 -27 7 -37 15 -11 8 -34 15 -52 15
-18 0 -34 5 -36 11 -2 6 -33 14 -70 19 -37 4 -72 11 -79 16 -7 4 -34 12 -59
17 -61 12 -519 17 -526 6 -3 -5 -22 -9 -42 -9 -20 -1 -48 -7 -62 -15 -14 -8
-42 -14 -62 -15 -20 0 -43 -7 -52 -15 -8 -8 -27 -15 -43 -15 -15 0 -37 -7 -47
-15 -11 -8 -28 -15 -39 -15 -10 0 -31 -7 -45 -15 -37 -20 -155 -65 -173 -65
-8 0 -23 -7 -33 -15 -11 -8 -30 -15 -42 -15 -12 0 -27 -6 -34 -14 -6 -9 -19
-12 -28 -8 -19 7 -51 42 -52 55 0 5 -6 23 -14 40 -61 135 -75 168 -91 212 -21
60 -43 114 -54 135 -5 9 -12 30 -15 48 -4 17 -12 34 -17 37 -5 4 -9 17 -9 30
0 13 -4 26 -9 29 -5 4 -17 32 -27 64 -10 31 -26 73 -36 92 -10 19 -18 40 -18
47 0 7 -6 27 -14 45 -8 18 -21 49 -30 70 -9 20 -16 41 -16 47 0 6 -4 19 -9 29
-11 22 -35 77 -56 127 -9 22 -20 48 -25 57 -6 10 -10 27 -10 37 0 11 -4 22 -9
26 -6 3 -33 54 -62 113 -28 59 -65 126 -80 149 -16 23 -29 46 -29 52 0 6 -12
18 -26 27 l-25 17 3 194 c2 159 6 195 18 203 8 5 57 10 108 10 80 0 97 3 131
24 46 29 74 84 73 142 -1 50 -11 69 -71 144 -56 70 -95 107 -120 115 -10 3
-22 12 -25 20 -7 19 -32 19 -43 2 -4 -7 -25 -26 -45 -43 -21 -16 -38 -36 -38
-44 0 -9 -8 -23 -17 -31 -10 -9 -32 -32 -50 -52 -29 -35 -57 -47 -65 -29 -7
19 -161 102 -188 102 -15 0 -30 5 -32 12 -3 7 -39 11 -109 12 -57 1 -107 6
-111 11 -4 6 -8 53 -8 106 0 81 -3 99 -19 113 -28 25 -84 32 -104 12z m-108
-608 c17 -44 -54 -89 -87 -56 -17 17 -15 35 8 58 27 27 68 26 79 -2z m126 -59
c16 -16 18 -22 7 -37 -7 -9 -15 -25 -18 -34 -15 -43 -115 -43 -128 0 -9 27 0
43 41 75 40 30 64 29 98 -4z"/>
</g>
</svg>
