<?xml version="1.0" standalone="no"?>
<!DOCTYPE svg PUBLIC "-//W3C//DTD SVG 20010904//EN"
 "http://www.w3.org/TR/2001/REC-SVG-20010904/DTD/svg10.dtd">
<svg version="1.0" xmlns="http://www.w3.org/2000/svg"
 width="544.000000pt" height="375.000000pt" viewBox="0 0 544.000000 375.000000"
 preserveAspectRatio="xMidYMid meet">

<g transform="translate(0.000000,375.000000) scale(0.100000,-0.100000)"
fill="#000000" stroke="none">
<path d="M739 3703 c-78 -66 -77 -153 4 -286 27 -45 28 -49 12 -61 -28 -21
-463 -232 -550 -267 -163 -66 -228 -156 -180 -249 28 -54 100 -61 222 -22 27
9 36 7 64 -14 18 -13 56 -33 84 -43 59 -22 251 -51 339 -51 57 0 61 -2 100
-43 43 -45 106 -153 106 -182 0 -17 -9 -17 -117 -10 -220 15 -241 14 -269 -18
-33 -38 -34 -109 -2 -131 37 -26 94 -20 128 13 29 27 33 28 76 19 40 -9 184
-7 238 3 16 3 25 -11 52 -78 19 -45 31 -89 28 -96 -8 -21 -72 -29 -183 -22
-127 7 -158 -4 -190 -68 -27 -54 -23 -86 14 -123 17 -16 35 -24 60 -24 48 0
71 13 83 50 11 30 11 30 89 30 43 1 96 7 118 15 27 10 43 11 50 4 6 -6 10 -73
10 -162 0 -130 -5 -177 -33 -326 l-33 -175 -46 -50 c-144 -159 -220 -365 -194
-527 12 -69 77 -199 136 -268 50 -59 60 -90 44 -140 -15 -45 -87 -157 -128
-195 -17 -17 -31 -33 -31 -38 0 -14 76 30 135 77 30 25 55 40 55 34 0 -7 -26
-46 -57 -88 -97 -126 -93 -119 -58 -97 61 39 120 92 174 158 54 66 71 80 71
56 0 -17 -64 -124 -117 -198 -51 -68 -43 -73 14 -9 43 48 137 179 163 227 37
69 26 97 -79 199 -53 52 -53 53 -47 100 4 27 18 71 32 100 l25 51 435 -1 435
-2 6 -24 c3 -12 3 -55 -1 -94 -8 -88 -39 -145 -98 -181 -55 -33 -147 -116
-130 -116 8 0 38 7 68 16 30 8 59 14 65 12 6 -2 -10 -27 -36 -56 -26 -29 -44
-52 -40 -52 12 0 150 98 189 134 35 33 56 44 56 31 0 -21 -50 -104 -88 -146
-24 -27 -42 -52 -40 -54 8 -9 142 91 181 135 22 23 47 61 58 84 26 56 26 188
0 281 -11 38 -17 73 -15 77 3 5 23 17 44 28 58 30 136 115 172 188 31 63 32
64 67 58 20 -4 77 -27 126 -51 112 -56 204 -136 429 -376 244 -261 294 -293
461 -291 91 0 113 4 241 46 77 25 150 46 161 46 36 0 117 -33 180 -72 35 -22
137 -99 228 -172 91 -73 191 -147 223 -164 157 -84 370 -80 562 9 105 49 340
201 340 220 0 18 -132 -41 -243 -108 -107 -65 -171 -85 -289 -90 -89 -5 -117
-2 -175 15 -147 45 -285 149 -464 348 -128 142 -160 165 -264 186 -74 15 -195
-1 -326 -43 -108 -34 -122 -35 -196 -9 -117 41 -229 139 -417 363 -119 143
-207 233 -269 275 -65 46 -175 97 -251 117 l-65 18 -6 46 c-44 377 -160 706
-352 1001 -109 166 -264 332 -393 420 -60 40 -217 120 -238 120 -5 0 -13 40
-16 90 -4 49 -8 93 -8 97 -1 8 14 16 59 33 75 28 144 135 160 245 13 98 -54
210 -141 233 -72 20 -106 -4 -135 -93 -23 -69 -58 -135 -72 -135 -5 0 -34 14
-64 31 -54 30 -57 31 -157 26 -57 -3 -114 -7 -127 -9 -30 -4 -61 50 -61 106 0
80 -60 156 -123 156 -14 0 -40 -12 -58 -27z m-14 -442 c3 -5 -6 -22 -19 -38
-20 -23 -28 -26 -42 -17 -25 15 -27 29 -9 48 18 17 60 22 70 7z m73 -87 c28
-19 28 -26 -5 -58 -36 -37 -87 -34 -91 5 -2 19 4 33 24 48 32 25 43 26 72 5z"/>
</g>
</svg>
